<svg xmlns="http://www.w3.org/2000/svg" width="491" height="386">
    <path
        d="M45 187.874v-145h396v290H45zm188 134c0-.6 4-1 10-1s10 .4 10 1c0 .66 30.333 1 89 1h89v-270h-89c-58.667 0-89 .34-89 1 0 .6-4 1-10 1s-10-.4-10-1c0-.66-30.333-1-89-1H55v270h89c58.667 0 89-.34 89-1zm-127-70.838v-9.124l2.75-.588c10.724-2.295 18.098-8.216 20.935-16.812 1.484-4.496 1.743-11.6 2.077-56.888l.381-51.75h18.982l-.324 53.75c-.322 53.262-.345 53.809-2.64 60.196-6.006 16.727-19.636 27.985-35.944 29.69l-6.217.649zm86-75.662v-59.5h80v18h-61v32h54v17.967l-26.75.267-26.75.266-.275 16.25-.275 16.25H274v18h-82zm138 9v-50.5h-30v-18h80v18h-30v101h-20z" />
</svg>